
            <svg id="trend-chart" width="660" height="400" title="Stack Overflow Trends Chart" version="1.1" xmlns="http://www.w3.org/2000/svg"><g></g><g class="chart-area" transform="translate(100, 20)"><g transform="translate(0,300)" fill="none" font-size="10" font-family="sans-serif" text-anchor="middle"><path class="domain" stroke="#000" d="M0.5,6V0.5H410.5V6"></path><g class="tick" opacity="1" transform="translate(13.208280679584385,0)"><line stroke="#000" y2="6" x1="0.5" x2="0.5"></line><text fill="#000" y="9" x="0.5" dy="0.71em" style="font-size: 12px;">2009</text></g><g class="tick" opacity="1" transform="translate(44.7268147992137,0)"><line stroke="#000" y2="6" x1="0.5" x2="0.5"></line><text fill="#000" y="9" x="0.5" dy="0.71em" style="font-size: 12px;">2010</text></g><g class="tick" opacity="1" transform="translate(76.24534891884302,0)"><line stroke="#000" y2="6" x1="0.5" x2="0.5"></line><text fill="#000" y="9" x="0.5" dy="0.71em" style="font-size: 12px;">2011</text></g><g class="tick" opacity="1" transform="translate(107.76388303847233,0)"><line stroke="#000" y2="6" x1="0.5" x2="0.5"></line><text fill="#000" y="9" x="0.5" dy="0.71em" style="font-size: 12px;">2012</text></g><g class="tick" opacity="1" transform="translate(139.36876930637462,0)"><line stroke="#000" y2="6" x1="0.5" x2="0.5"></line><text fill="#000" y="9" x="0.5" dy="0.71em" style="font-size: 12px;">2013</text></g><g class="tick" opacity="1" transform="translate(170.88730342600394,0)"><line stroke="#000" y2="6" x1="0.5" x2="0.5"></line><text fill="#000" y="9" x="0.5" dy="0.71em" style="font-size: 12px;">2014</text></g><g class="tick" opacity="1" transform="translate(202.40583754563326,0)"><line stroke="#000" y2="6" x1="0.5" x2="0.5"></line><text fill="#000" y="9" x="0.5" dy="0.71em" style="font-size: 12px;">2015</text></g><g class="tick" opacity="1" transform="translate(233.92437166526258,0)"><line stroke="#000" y2="6" x1="0.5" x2="0.5"></line><text fill="#000" y="9" x="0.5" dy="0.71em" style="font-size: 12px;">2016</text></g><g class="tick" opacity="1" transform="translate(265.52925793316484,0)"><line stroke="#000" y2="6" x1="0.5" x2="0.5"></line><text fill="#000" y="9" x="0.5" dy="0.71em" style="font-size: 12px;">2017</text></g><g class="tick" opacity="1" transform="translate(297.0477920527942,0)"><line stroke="#000" y2="6" x1="0.5" x2="0.5"></line><text fill="#000" y="9" x="0.5" dy="0.71em" style="font-size: 12px;">2018</text></g><g class="tick" opacity="1" transform="translate(328.5663261724235,0)"><line stroke="#000" y2="6" x1="0.5" x2="0.5"></line><text fill="#000" y="9" x="0.5" dy="0.71em" style="font-size: 12px;">2019</text></g><g class="tick" opacity="1" transform="translate(360.0848602920528,0)"><line stroke="#000" y2="6" x1="0.5" x2="0.5"></line><text fill="#000" y="9" x="0.5" dy="0.71em" style="font-size: 12px;">2020</text></g><g class="tick" opacity="1" transform="translate(391.68974655995504,0)"><line stroke="#000" y2="6" x1="0.5" x2="0.5"></line><text fill="#000" y="9" x="0.5" dy="0.71em" style="font-size: 12px;">2021</text></g></g><g class="grid-lines" transform="translate(0,300)" fill="none" font-size="10" font-family="sans-serif" text-anchor="middle"><path class="domain" stroke="#000" d="M0.5,-300V0.5H410.5V-300"></path><g class="tick" opacity="1" transform="translate(13.208280679584385,0)"><line stroke="#000" y2="-300" x1="0.5" x2="0.5" style="stroke: #ccc; fill: none;"></line></g><g class="tick" opacity="1" transform="translate(44.7268147992137,0)"><line stroke="#000" y2="-300" x1="0.5" x2="0.5" style="stroke: #ccc; fill: none;"></line></g><g class="tick" opacity="1" transform="translate(76.24534891884302,0)"><line stroke="#000" y2="-300" x1="0.5" x2="0.5" style="stroke: #ccc; fill: none;"></line></g><g class="tick" opacity="1" transform="translate(107.76388303847233,0)"><line stroke="#000" y2="-300" x1="0.5" x2="0.5" style="stroke: #ccc; fill: none;"></line></g><g class="tick" opacity="1" transform="translate(139.36876930637462,0)"><line stroke="#000" y2="-300" x1="0.5" x2="0.5" style="stroke: #ccc; fill: none;"></line></g><g class="tick" opacity="1" transform="translate(170.88730342600394,0)"><line stroke="#000" y2="-300" x1="0.5" x2="0.5" style="stroke: #ccc; fill: none;"></line></g><g class="tick" opacity="1" transform="translate(202.40583754563326,0)"><line stroke="#000" y2="-300" x1="0.5" x2="0.5" style="stroke: #ccc; fill: none;"></line></g><g class="tick" opacity="1" transform="translate(233.92437166526258,0)"><line stroke="#000" y2="-300" x1="0.5" x2="0.5" style="stroke: #ccc; fill: none;"></line></g><g class="tick" opacity="1" transform="translate(265.52925793316484,0)"><line stroke="#000" y2="-300" x1="0.5" x2="0.5" style="stroke: #ccc; fill: none;"></line></g><g class="tick" opacity="1" transform="translate(297.0477920527942,0)"><line stroke="#000" y2="-300" x1="0.5" x2="0.5" style="stroke: #ccc; fill: none;"></line></g><g class="tick" opacity="1" transform="translate(328.5663261724235,0)"><line stroke="#000" y2="-300" x1="0.5" x2="0.5" style="stroke: #ccc; fill: none;"></line></g><g class="tick" opacity="1" transform="translate(360.0848602920528,0)"><line stroke="#000" y2="-300" x1="0.5" x2="0.5" style="stroke: #ccc; fill: none;"></line></g><g class="tick" opacity="1" transform="translate(391.68974655995504,0)"><line stroke="#000" y2="-300" x1="0.5" x2="0.5" style="stroke: #ccc; fill: none;"></line></g></g><text x="205" y="360" class="axis-label x-axis-label" style="text-anchor: middle; font-weight: bold;">Year</text><g fill="none" font-size="10" font-family="sans-serif" text-anchor="end"><path class="domain" stroke="#000" d="M-6,300.5H0.5V0.5H-6"></path><g class="tick" opacity="1" transform="translate(0,300)"><line stroke="#000" x2="-6" y1="0.5" y2="0.5"></line><text fill="#000" x="-9" y="0.5" dy="0.32em" style="font-size: 12px;">0.00%</text></g><g class="tick" opacity="1" transform="translate(0,266.6666666666667)"><line stroke="#000" x2="-6" y1="0.5" y2="0.5"></line><text fill="#000" x="-9" y="0.5" dy="0.32em" style="font-size: 12px;">0.10%</text></g><g class="tick" opacity="1" transform="translate(0,233.33333333333331)"><line stroke="#000" x2="-6" y1="0.5" y2="0.5"></line><text fill="#000" x="-9" y="0.5" dy="0.32em" style="font-size: 12px;">0.20%</text></g><g class="tick" opacity="1" transform="translate(0,200)"><line stroke="#000" x2="-6" y1="0.5" y2="0.5"></line><text fill="#000" x="-9" y="0.5" dy="0.32em" style="font-size: 12px;">0.30%</text></g><g class="tick" opacity="1" transform="translate(0,166.66666666666666)"><line stroke="#000" x2="-6" y1="0.5" y2="0.5"></line><text fill="#000" x="-9" y="0.5" dy="0.32em" style="font-size: 12px;">0.40%</text></g><g class="tick" opacity="1" transform="translate(0,133.33333333333331)"><line stroke="#000" x2="-6" y1="0.5" y2="0.5"></line><text fill="#000" x="-9" y="0.5" dy="0.32em" style="font-size: 12px;">0.50%</text></g><g class="tick" opacity="1" transform="translate(0,99.99999999999997)"><line stroke="#000" x2="-6" y1="0.5" y2="0.5"></line><text fill="#000" x="-9" y="0.5" dy="0.32em" style="font-size: 12px;">0.60%</text></g><g class="tick" opacity="1" transform="translate(0,66.66666666666663)"><line stroke="#000" x2="-6" y1="0.5" y2="0.5"></line><text fill="#000" x="-9" y="0.5" dy="0.32em" style="font-size: 12px;">0.70%</text></g><g class="tick" opacity="1" transform="translate(0,33.333333333333314)"><line stroke="#000" x2="-6" y1="0.5" y2="0.5"></line><text fill="#000" x="-9" y="0.5" dy="0.32em" style="font-size: 12px;">0.80%</text></g><g class="tick" opacity="1" transform="translate(0,0)"><line stroke="#000" x2="-6" y1="0.5" y2="0.5"></line><text fill="#000" x="-9" y="0.5" dy="0.32em" style="font-size: 12px;">0.90%</text></g></g><g class="grid-lines" fill="none" font-size="10" font-family="sans-serif" text-anchor="end"><path class="domain" stroke="#000" d="M410,300.5H0.5V0.5H410"></path><g class="tick" opacity="1" transform="translate(0,300)"><line stroke="#000" x2="410" y1="0.5" y2="0.5" style="stroke: #ccc; fill: none;"></line></g><g class="tick" opacity="1" transform="translate(0,266.6666666666667)"><line stroke="#000" x2="410" y1="0.5" y2="0.5" style="stroke: #ccc; fill: none;"></line></g><g class="tick" opacity="1" transform="translate(0,233.33333333333331)"><line stroke="#000" x2="410" y1="0.5" y2="0.5" style="stroke: #ccc; fill: none;"></line></g><g class="tick" opacity="1" transform="translate(0,200)"><line stroke="#000" x2="410" y1="0.5" y2="0.5" style="stroke: #ccc; fill: none;"></line></g><g class="tick" opacity="1" transform="translate(0,166.66666666666666)"><line stroke="#000" x2="410" y1="0.5" y2="0.5" style="stroke: #ccc; fill: none;"></line></g><g class="tick" opacity="1" transform="translate(0,133.33333333333331)"><line stroke="#000" x2="410" y1="0.5" y2="0.5" style="stroke: #ccc; fill: none;"></line></g><g class="tick" opacity="1" transform="translate(0,99.99999999999997)"><line stroke="#000" x2="410" y1="0.5" y2="0.5" style="stroke: #ccc; fill: none;"></line></g><g class="tick" opacity="1" transform="translate(0,66.66666666666663)"><line stroke="#000" x2="410" y1="0.5" y2="0.5" style="stroke: #ccc; fill: none;"></line></g><g class="tick" opacity="1" transform="translate(0,33.333333333333314)"><line stroke="#000" x2="410" y1="0.5" y2="0.5" style="stroke: #ccc; fill: none;"></line></g><g class="tick" opacity="1" transform="translate(0,0)"><line stroke="#000" x2="410" y1="0.5" y2="0.5" style="stroke: #ccc; fill: none;"></line></g></g><g class="lines"><path class="line" d="M2.676916596461668,273.6116108913333L5.2674810446503795,251.47986414366667L7.940799634934008,270.78120434566665L10.531364083122718,263.7468975713333L13.208280679584385,259.71418272799997L15.885197276046055,248.320413437L18.303057427688852,262.145525766L20.97997402415052,249.471024791L23.57413647851727,245.17758546433333L26.251053074978937,248.82597260433334L28.84161752316765,259.50534218L31.518534119629315,265.0378413953333L34.19545071609099,248.02812595566667L36.786015164279696,235.19778561599998L39.459333754563325,197.68881660066666L42.04989820275203,210.05912944366665L44.7268147992137,231.23603231933333L47.40373139567537,216.79784124133334L49.82159154731817,221.59433422666666L52.49850814377983,175.92719273566667L55.09267059814658,166.32052076899998L57.76958719460825,212.08579463033334L60.360151642796964,216.719061959L63.03706823925863,226.25485269433332L65.7139848357203,209.53798582233333L68.30454928390901,214.872150582L70.97786787419264,224.89564828066665L73.56843232238135,213.73410828066665L76.24534891884302,225.850519675L78.92226551530469,183.23939963266662L81.34012566694749,157.3101976753333L84.01704226340915,166.64986664999998L86.6112047177759,198.968680291L89.28812131423757,194.7048699L91.87868576242629,205.687007057L94.55560235888795,220.51915020966666L97.23251895534962,212.60028871366666L99.82308340353833,167.89089962699998L102.49640199382196,167.60568560033335L105.08696644201068,175.10542003866667L107.76388303847233,168.6623098193333L110.44079963493401,150.33694412333332L112.94501193484976,156.37459503899998L115.62192853131144,139.11458616699997L118.21609098567818,166.07930391066668L120.89300758213984,167.89420293199998L123.48357203032856,169.42061881433332L126.16048862679024,158.92756545933332L128.8374052232519,160.293838503L131.4279696714406,131.337305284L134.10128826172425,109.74228110199999L136.69185270991292,133.528745356L139.36876930637462,146.34217875333331L142.04568590283628,122.58914840633335L144.46354605447908,108.78251131033332L147.14046265094075,95.6159923166667L149.73462510530752,95.64142095466664L152.41154170176915,110.39011494866665L155.00210614995788,112.40473678066661L157.67902274641955,120.86131762099998L160.35593934288121,120.20986265833332L162.94650379106992,99.63877007933331L165.61982238135357,72.78188006466658L168.21038682954227,87.00358826366664L170.88730342600394,103.667928423L173.56422002246558,80.63982124366663L175.98208017410838,71.57058485033332L178.65899677057007,57.638753100333304L181.2531592249368,62.35111439366665L183.93007582139848,88.32785162033329L186.52064026958718,90.95626669399996L189.19755686604887,111.57216663399998L191.87447346251054,84.29585272566666L194.46503791069924,61.958629918333315L197.13835650098287,53.670371640999946L199.7289209491716,84.95873532499999L202.40583754563326,95.79412499899999L205.0827541420949,63.46640088966663L207.5006142937377,56.02656717233333L210.1775308901994,30.9279278803333L212.7716933445661,48.41132762666666L215.4486099410278,82.18404645333331L218.03917438921653,107.05310927499997L220.71609098567816,111.87445484266664L223.39300758213983,123.27890248099999L225.9835720303286,109.83223136800001L228.65689062061216,89.25343027699998L231.24745506880092,130.23854110166667L233.92437166526258,127.69641219466666L236.60128826172422,109.16948636133333L239.10550056163996,94.06501019700002L241.78241715810165,109.41656216166663L244.37657961246842,99.306792898L247.05349620893006,120.29467299466663L249.64406065711879,130.372932611L252.32097725358048,127.290344532L254.99789385004212,134.42962475299998L257.5884582982308,128.92016402199994L260.2617768885145,151.11167391933333L262.85234133670315,148.51875797833333L265.52925793316484,149.88070367733332L268.20617452962654,137.56883164766666L270.62403468126934,120.79839819799997L273.300951277731,121.75392630766666L275.89511373209774,121.19360478766663L278.5720303285594,149.317212727L281.1625947767481,163.64172002233335L283.8395113732098,164.07866376266665L286.51642796967144,180.11084561266665L289.10699241786017,163.0071995353333L291.7803110081438,151.16471569099997L294.3708754563325,184.58451582166663L297.0477920527942,179.59565957066667L299.72470864925583,182.44496886466666L302.14256880089863,190.452007083L304.81948539736027,174.938918843L307.41364785172703,194.16459313633334L310.0905644481887,200.3073674383333L312.6811288963774,202.70135648266665L315.3580454928391,214.21357846166666L318.03496208930073,199.87122974433333L320.62552653748946,191.56760173933333L323.2988451277731,188.12737785400003L325.8894095759618,193.38938005933332L328.5663261724235,208.2810107973333L331.2432427688852,216.99284808566665L333.661102920528,205.46405228766668L336.3380195169896,192.86696364766664L338.9321819713564,198.05569683533332L341.609098567818,210.625176888L344.19966301600675,214.45775597933334L346.87657961246845,221.982673755L349.55349620893,225.73567327666666L352.1440606571188,204.16823994166668L354.8173792474024,208.99662538633333L357.40794369559114,226.64174008866667L360.0848602920528,225.0622189833333L362.7617768885145,223.34023502833332L365.26598918843024,235.25252590466664L367.9429057848919,220.9119167943333L370.53706823925864,233.43156675133332L373.21398483572034,241.608177199L375.804549283909,237.34145873133332L378.4814658803707,248.02365601633332L381.15838247683234,242.89397384466668L383.7489469250211,229.37684989033335L386.4222655153047,211.24186901066668L389.0128299634934,223.388143524L391.68974655995504,225.51905788666664L394.36666315641673,225.168476325L396.78452330805953,230.22228655633333L399.4614399045212,222.83104466466665L402.05560235888794,231.30975587133332L404.73251895534963,242.01786361433332L407.3230834035383,242.849927898L410,252.82028641133334" data-legend="matlab" style="stroke: rgb(31, 119, 180); fill: none;"></path><path class="line" d="M2.676916596461668,300L5.2674810446503795,300L7.940799634934008,300L10.531364083122718,300L13.208280679584385,300L15.885197276046055,300L18.303057427688852,300L20.97997402415052,300L23.57413647851727,300L26.251053074978937,300L28.84161752316765,300L31.518534119629315,300L34.19545071609099,300L36.786015164279696,300L39.459333754563325,300L42.04989820275203,300L44.7268147992137,300L47.40373139567537,300L49.82159154731817,300L52.49850814377983,300L55.09267059814658,300L57.76958719460825,300L60.360151642796964,300L63.03706823925863,300L65.7139848357203,300L68.30454928390901,300L70.97786787419264,300L73.56843232238135,300L76.24534891884302,300L78.92226551530469,300L81.34012566694749,300L84.01704226340915,300L86.6112047177759,300L89.28812131423757,300L91.87868576242629,300L94.55560235888795,300L97.23251895534962,300L99.82308340353833,300L102.49640199382196,300L105.08696644201068,300L107.76388303847233,300L110.44079963493401,300L112.94501193484976,300L115.62192853131144,300L118.21609098567818,300L120.89300758213984,300L123.48357203032856,300L126.16048862679024,300L128.8374052232519,300L131.4279696714406,300L134.10128826172425,300L136.69185270991292,300L139.36876930637462,300L142.04568590283628,300L144.46354605447908,300L147.14046265094075,300L149.73462510530752,300L152.41154170176915,300L155.00210614995788,300L157.67902274641955,300L160.35593934288121,300L162.94650379106992,300L165.61982238135357,300L168.21038682954227,300L170.88730342600394,300L173.56422002246558,300L175.98208017410838,300L178.65899677057007,300L181.2531592249368,300L183.93007582139848,300L186.52064026958718,300L189.19755686604887,300L191.87447346251054,300L194.46503791069924,300L197.13835650098287,300L199.7289209491716,300L202.40583754563326,300L205.0827541420949,300L207.5006142937377,300L210.1775308901994,300L212.7716933445661,300L215.4486099410278,300L218.03917438921653,300L220.71609098567816,300L223.39300758213983,300L225.9835720303286,300L228.65689062061216,300L231.24745506880092,300L233.92437166526258,299.814727325L236.60128826172422,300L239.10550056163996,300L241.78241715810165,300L244.37657961246842,300L247.05349620893006,300L249.64406065711879,299.810048077L252.32097725358048,300L254.99789385004212,300L257.5884582982308,300L260.2617768885145,300L262.85234133670315,300L265.52925793316484,299.23893892866664L268.20617452962654,299.4240029493333L270.62403468126934,297.4971843326667L273.300951277731,295.8591197243333L275.89511373209774,295.49379044333335L278.5720303285594,289.250414425L281.1625947767481,293.640354569L283.8395113732098,293.744206282L286.51642796967144,292.5328554363333L289.10699241786017,291.302044415L291.7803110081438,283.484854816L294.3708754563325,287.2788544493333L297.0477920527942,286.575125806L299.72470864925583,285.7176130396667L302.14256880089863,282.682466484L304.81948539736027,279.50157775766667L307.41364785172703,278.913249107L310.0905644481887,272.94992026799997L312.6811288963774,272.7732646123333L315.3580454928391,273.24482892633335L318.03496208930073,273.454233002L320.62552653748946,272.57790700366667L323.2988451277731,264.3532125826667L325.8894095759618,252.78672545499998L328.5663261724235,255.93891695166667L331.2432427688852,255.286202698L333.661102920528,253.35947712433332L336.3380195169896,248.96331738466665L338.9321819713564,253.37776945L341.609098567818,250.3473204933333L344.19966301600675,246.39650505233334L346.87657961246845,243.64048040966665L349.55349620893,242.01954558133332L352.1440606571188,241.04359461866667L354.8173792474024,234.41402677466667L357.40794369559114,227.14940970733332L360.0848602920528,242.478950963L362.7617768885145,230.75145097733332L365.26598918843024,231.16547604466666L367.9429057848919,228.06837907966667L370.53706823925864,210.40248714066666L373.21398483572034,205.088876651L375.804549283909,211.46954491733334L378.4814658803707,212.31816754033332L381.15838247683234,216.02054977166665L383.7489469250211,215.68865506566664L386.4222655153047,211.03497360033336L389.0128299634934,191.097195753L391.68974655995504,196.61001296899997L394.36666315641673,211.8885157853333L396.78452330805953,200.15848448766667L399.4614399045212,187.49578616899998L402.05560235888794,184.48487473833333L404.73251895534963,181.47769179966664L407.3230834035383,174.84577233466666L410,186.59555082333333" data-legend="pytorch" style="stroke: rgb(255, 127, 14); fill: none;"></path></g></g><g transform="translate(20, 150)"><text transform="rotate(-90)" x="-50" y="0" dy="1em" class="axis-label y-axis-label" style="text-anchor: middle; font-weight: bold;">% of Stack Overflow questions that month</text></g><g class="legend" transform="translate(530, 30)" style="font-size: 12px;"><text class="legend-title" style="font-weight: bold;">Tag</text><g class="legend-items" transform="translate(0,20)"><text y="0em" x="1em">matlab</text><text y="1em" x="1em">pytorch</text><circle cy="-0.25em" cx="0" r="0.4em" style="fill: rgb(31, 119, 180);"></circle><circle cy="0.75em" cx="0" r="0.4em" style="fill: rgb(255, 127, 14);"></circle></g><rect class="legend-box"></rect></g></svg>
        