
            <svg id="trend-chart" width="660" height="400" title="Stack Overflow Trends Chart" version="1.1" xmlns="http://www.w3.org/2000/svg"><g></g><g class="chart-area" transform="translate(100, 20)"><g transform="translate(0,300)" fill="none" font-size="10" font-family="sans-serif" text-anchor="middle"><path class="domain" stroke="#000" d="M0.5,6V0.5H410.5V6"></path><g class="tick" opacity="1" transform="translate(13.208280679584385,0)"><line stroke="#000" y2="6" x1="0.5" x2="0.5"></line><text fill="#000" y="9" x="0.5" dy="0.71em" style="font-size: 12px;">2009</text></g><g class="tick" opacity="1" transform="translate(44.7268147992137,0)"><line stroke="#000" y2="6" x1="0.5" x2="0.5"></line><text fill="#000" y="9" x="0.5" dy="0.71em" style="font-size: 12px;">2010</text></g><g class="tick" opacity="1" transform="translate(76.24534891884302,0)"><line stroke="#000" y2="6" x1="0.5" x2="0.5"></line><text fill="#000" y="9" x="0.5" dy="0.71em" style="font-size: 12px;">2011</text></g><g class="tick" opacity="1" transform="translate(107.76388303847233,0)"><line stroke="#000" y2="6" x1="0.5" x2="0.5"></line><text fill="#000" y="9" x="0.5" dy="0.71em" style="font-size: 12px;">2012</text></g><g class="tick" opacity="1" transform="translate(139.36876930637462,0)"><line stroke="#000" y2="6" x1="0.5" x2="0.5"></line><text fill="#000" y="9" x="0.5" dy="0.71em" style="font-size: 12px;">2013</text></g><g class="tick" opacity="1" transform="translate(170.88730342600394,0)"><line stroke="#000" y2="6" x1="0.5" x2="0.5"></line><text fill="#000" y="9" x="0.5" dy="0.71em" style="font-size: 12px;">2014</text></g><g class="tick" opacity="1" transform="translate(202.40583754563326,0)"><line stroke="#000" y2="6" x1="0.5" x2="0.5"></line><text fill="#000" y="9" x="0.5" dy="0.71em" style="font-size: 12px;">2015</text></g><g class="tick" opacity="1" transform="translate(233.92437166526258,0)"><line stroke="#000" y2="6" x1="0.5" x2="0.5"></line><text fill="#000" y="9" x="0.5" dy="0.71em" style="font-size: 12px;">2016</text></g><g class="tick" opacity="1" transform="translate(265.52925793316484,0)"><line stroke="#000" y2="6" x1="0.5" x2="0.5"></line><text fill="#000" y="9" x="0.5" dy="0.71em" style="font-size: 12px;">2017</text></g><g class="tick" opacity="1" transform="translate(297.0477920527942,0)"><line stroke="#000" y2="6" x1="0.5" x2="0.5"></line><text fill="#000" y="9" x="0.5" dy="0.71em" style="font-size: 12px;">2018</text></g><g class="tick" opacity="1" transform="translate(328.5663261724235,0)"><line stroke="#000" y2="6" x1="0.5" x2="0.5"></line><text fill="#000" y="9" x="0.5" dy="0.71em" style="font-size: 12px;">2019</text></g><g class="tick" opacity="1" transform="translate(360.0848602920528,0)"><line stroke="#000" y2="6" x1="0.5" x2="0.5"></line><text fill="#000" y="9" x="0.5" dy="0.71em" style="font-size: 12px;">2020</text></g><g class="tick" opacity="1" transform="translate(391.68974655995504,0)"><line stroke="#000" y2="6" x1="0.5" x2="0.5"></line><text fill="#000" y="9" x="0.5" dy="0.71em" style="font-size: 12px;">2021</text></g></g><g class="grid-lines" transform="translate(0,300)" fill="none" font-size="10" font-family="sans-serif" text-anchor="middle"><path class="domain" stroke="#000" d="M0.5,-300V0.5H410.5V-300"></path><g class="tick" opacity="1" transform="translate(13.208280679584385,0)"><line stroke="#000" y2="-300" x1="0.5" x2="0.5" style="stroke: #ccc; fill: none;"></line></g><g class="tick" opacity="1" transform="translate(44.7268147992137,0)"><line stroke="#000" y2="-300" x1="0.5" x2="0.5" style="stroke: #ccc; fill: none;"></line></g><g class="tick" opacity="1" transform="translate(76.24534891884302,0)"><line stroke="#000" y2="-300" x1="0.5" x2="0.5" style="stroke: #ccc; fill: none;"></line></g><g class="tick" opacity="1" transform="translate(107.76388303847233,0)"><line stroke="#000" y2="-300" x1="0.5" x2="0.5" style="stroke: #ccc; fill: none;"></line></g><g class="tick" opacity="1" transform="translate(139.36876930637462,0)"><line stroke="#000" y2="-300" x1="0.5" x2="0.5" style="stroke: #ccc; fill: none;"></line></g><g class="tick" opacity="1" transform="translate(170.88730342600394,0)"><line stroke="#000" y2="-300" x1="0.5" x2="0.5" style="stroke: #ccc; fill: none;"></line></g><g class="tick" opacity="1" transform="translate(202.40583754563326,0)"><line stroke="#000" y2="-300" x1="0.5" x2="0.5" style="stroke: #ccc; fill: none;"></line></g><g class="tick" opacity="1" transform="translate(233.92437166526258,0)"><line stroke="#000" y2="-300" x1="0.5" x2="0.5" style="stroke: #ccc; fill: none;"></line></g><g class="tick" opacity="1" transform="translate(265.52925793316484,0)"><line stroke="#000" y2="-300" x1="0.5" x2="0.5" style="stroke: #ccc; fill: none;"></line></g><g class="tick" opacity="1" transform="translate(297.0477920527942,0)"><line stroke="#000" y2="-300" x1="0.5" x2="0.5" style="stroke: #ccc; fill: none;"></line></g><g class="tick" opacity="1" transform="translate(328.5663261724235,0)"><line stroke="#000" y2="-300" x1="0.5" x2="0.5" style="stroke: #ccc; fill: none;"></line></g><g class="tick" opacity="1" transform="translate(360.0848602920528,0)"><line stroke="#000" y2="-300" x1="0.5" x2="0.5" style="stroke: #ccc; fill: none;"></line></g><g class="tick" opacity="1" transform="translate(391.68974655995504,0)"><line stroke="#000" y2="-300" x1="0.5" x2="0.5" style="stroke: #ccc; fill: none;"></line></g></g><text x="205" y="360" class="axis-label x-axis-label" style="text-anchor: middle; font-weight: bold;">Year</text><g fill="none" font-size="10" font-family="sans-serif" text-anchor="end"><path class="domain" stroke="#000" d="M-6,300.5H0.5V0.5H-6"></path><g class="tick" opacity="1" transform="translate(0,300)"><line stroke="#000" x2="-6" y1="0.5" y2="0.5"></line><text fill="#000" x="-9" y="0.5" dy="0.32em" style="font-size: 12px;">0.00%</text></g><g class="tick" opacity="1" transform="translate(0,280)"><line stroke="#000" x2="-6" y1="0.5" y2="0.5"></line><text fill="#000" x="-9" y="0.5" dy="0.32em" style="font-size: 12px;">0.20%</text></g><g class="tick" opacity="1" transform="translate(0,260)"><line stroke="#000" x2="-6" y1="0.5" y2="0.5"></line><text fill="#000" x="-9" y="0.5" dy="0.32em" style="font-size: 12px;">0.40%</text></g><g class="tick" opacity="1" transform="translate(0,240)"><line stroke="#000" x2="-6" y1="0.5" y2="0.5"></line><text fill="#000" x="-9" y="0.5" dy="0.32em" style="font-size: 12px;">0.60%</text></g><g class="tick" opacity="1" transform="translate(0,220)"><line stroke="#000" x2="-6" y1="0.5" y2="0.5"></line><text fill="#000" x="-9" y="0.5" dy="0.32em" style="font-size: 12px;">0.80%</text></g><g class="tick" opacity="1" transform="translate(0,200)"><line stroke="#000" x2="-6" y1="0.5" y2="0.5"></line><text fill="#000" x="-9" y="0.5" dy="0.32em" style="font-size: 12px;">1.00%</text></g><g class="tick" opacity="1" transform="translate(0,180)"><line stroke="#000" x2="-6" y1="0.5" y2="0.5"></line><text fill="#000" x="-9" y="0.5" dy="0.32em" style="font-size: 12px;">1.20%</text></g><g class="tick" opacity="1" transform="translate(0,160)"><line stroke="#000" x2="-6" y1="0.5" y2="0.5"></line><text fill="#000" x="-9" y="0.5" dy="0.32em" style="font-size: 12px;">1.40%</text></g><g class="tick" opacity="1" transform="translate(0,140)"><line stroke="#000" x2="-6" y1="0.5" y2="0.5"></line><text fill="#000" x="-9" y="0.5" dy="0.32em" style="font-size: 12px;">1.60%</text></g><g class="tick" opacity="1" transform="translate(0,120)"><line stroke="#000" x2="-6" y1="0.5" y2="0.5"></line><text fill="#000" x="-9" y="0.5" dy="0.32em" style="font-size: 12px;">1.80%</text></g><g class="tick" opacity="1" transform="translate(0,99.99999999999997)"><line stroke="#000" x2="-6" y1="0.5" y2="0.5"></line><text fill="#000" x="-9" y="0.5" dy="0.32em" style="font-size: 12px;">2.00%</text></g><g class="tick" opacity="1" transform="translate(0,80.00000000000003)"><line stroke="#000" x2="-6" y1="0.5" y2="0.5"></line><text fill="#000" x="-9" y="0.5" dy="0.32em" style="font-size: 12px;">2.20%</text></g><g class="tick" opacity="1" transform="translate(0,60)"><line stroke="#000" x2="-6" y1="0.5" y2="0.5"></line><text fill="#000" x="-9" y="0.5" dy="0.32em" style="font-size: 12px;">2.40%</text></g><g class="tick" opacity="1" transform="translate(0,40)"><line stroke="#000" x2="-6" y1="0.5" y2="0.5"></line><text fill="#000" x="-9" y="0.5" dy="0.32em" style="font-size: 12px;">2.60%</text></g><g class="tick" opacity="1" transform="translate(0,20)"><line stroke="#000" x2="-6" y1="0.5" y2="0.5"></line><text fill="#000" x="-9" y="0.5" dy="0.32em" style="font-size: 12px;">2.80%</text></g><g class="tick" opacity="1" transform="translate(0,0)"><line stroke="#000" x2="-6" y1="0.5" y2="0.5"></line><text fill="#000" x="-9" y="0.5" dy="0.32em" style="font-size: 12px;">3.00%</text></g></g><g class="grid-lines" fill="none" font-size="10" font-family="sans-serif" text-anchor="end"><path class="domain" stroke="#000" d="M410,300.5H0.5V0.5H410"></path><g class="tick" opacity="1" transform="translate(0,300)"><line stroke="#000" x2="410" y1="0.5" y2="0.5" style="stroke: #ccc; fill: none;"></line></g><g class="tick" opacity="1" transform="translate(0,280)"><line stroke="#000" x2="410" y1="0.5" y2="0.5" style="stroke: #ccc; fill: none;"></line></g><g class="tick" opacity="1" transform="translate(0,260)"><line stroke="#000" x2="410" y1="0.5" y2="0.5" style="stroke: #ccc; fill: none;"></line></g><g class="tick" opacity="1" transform="translate(0,240)"><line stroke="#000" x2="410" y1="0.5" y2="0.5" style="stroke: #ccc; fill: none;"></line></g><g class="tick" opacity="1" transform="translate(0,220)"><line stroke="#000" x2="410" y1="0.5" y2="0.5" style="stroke: #ccc; fill: none;"></line></g><g class="tick" opacity="1" transform="translate(0,200)"><line stroke="#000" x2="410" y1="0.5" y2="0.5" style="stroke: #ccc; fill: none;"></line></g><g class="tick" opacity="1" transform="translate(0,180)"><line stroke="#000" x2="410" y1="0.5" y2="0.5" style="stroke: #ccc; fill: none;"></line></g><g class="tick" opacity="1" transform="translate(0,160)"><line stroke="#000" x2="410" y1="0.5" y2="0.5" style="stroke: #ccc; fill: none;"></line></g><g class="tick" opacity="1" transform="translate(0,140)"><line stroke="#000" x2="410" y1="0.5" y2="0.5" style="stroke: #ccc; fill: none;"></line></g><g class="tick" opacity="1" transform="translate(0,120)"><line stroke="#000" x2="410" y1="0.5" y2="0.5" style="stroke: #ccc; fill: none;"></line></g><g class="tick" opacity="1" transform="translate(0,99.99999999999997)"><line stroke="#000" x2="410" y1="0.5" y2="0.5" style="stroke: #ccc; fill: none;"></line></g><g class="tick" opacity="1" transform="translate(0,80.00000000000003)"><line stroke="#000" x2="410" y1="0.5" y2="0.5" style="stroke: #ccc; fill: none;"></line></g><g class="tick" opacity="1" transform="translate(0,60)"><line stroke="#000" x2="410" y1="0.5" y2="0.5" style="stroke: #ccc; fill: none;"></line></g><g class="tick" opacity="1" transform="translate(0,40)"><line stroke="#000" x2="410" y1="0.5" y2="0.5" style="stroke: #ccc; fill: none;"></line></g><g class="tick" opacity="1" transform="translate(0,20)"><line stroke="#000" x2="410" y1="0.5" y2="0.5" style="stroke: #ccc; fill: none;"></line></g><g class="tick" opacity="1" transform="translate(0,0)"><line stroke="#000" x2="410" y1="0.5" y2="0.5" style="stroke: #ccc; fill: none;"></line></g></g><g class="lines"><path class="line" d="M2.676916596461668,300L5.2674810446503795,300L7.940799634934008,300L10.531364083122718,300L13.208280679584385,300L15.885197276046055,300L18.303057427688852,300L20.97997402415052,300L23.57413647851727,300L26.251053074978937,300L28.84161752316765,300L31.518534119629315,300L34.19545071609099,300L36.786015164279696,300L39.459333754563325,300L42.04989820275203,300L44.7268147992137,300L47.40373139567537,300L49.82159154731817,300L52.49850814377983,300L55.09267059814658,300L57.76958719460825,300L60.360151642796964,300L63.03706823925863,300L65.7139848357203,300L68.30454928390901,300L70.97786787419264,300L73.56843232238135,300L76.24534891884302,300L78.92226551530469,300L81.34012566694749,299.9004489752L84.01704226340915,299.78999979L86.6112047177759,300L89.28812131423757,299.8987546826L91.87868576242629,300L94.55560235888795,300L97.23251895534962,299.9017980773L99.82308340353833,299.6046610463L102.49640199382196,299.8161190078L105.08696644201068,299.9034320259L107.76388303847233,299.4826961875L110.44079963493401,299.6764042036L112.94501193484976,297.7519501833L115.62192853131144,297.9792170244L118.21609098567818,296.7948479044L120.89300758213984,296.1671432186L123.48357203032856,295.3330834884L126.16048862679024,293.7511539063L128.8374052232519,292.9387646635L131.4279696714406,293.0971162031L134.10128826172425,291.8557932458L136.69185270991292,290.7983199514L139.36876930637462,289.9899261678L142.04568590283628,287.7934333922L144.46354605447908,289.9957785656L147.14046265094075,288.8730769457L149.73462510530752,286.3894777414L152.41154170176915,284.4173613399L155.00210614995788,283.6043252812L157.67902274641955,283.2830057627L160.35593934288121,285.4273240698L162.94650379106992,280.4892364716L165.61982238135357,279.7944253047L168.21038682954227,279.850055367L170.88730342600394,276.0902526694L173.56422002246558,278.3659354069L175.98208017410838,274.5850172167L178.65899677057007,274.6318270231L181.2531592249368,273.7544736693L183.93007582139848,271.6059572057L186.52064026958718,272.5736129883L189.19755686604887,270.570924073L191.87447346251054,270.4815313385L194.46503791069924,271.8063105135L197.13835650098287,268.9480240473L199.7289209491716,273.0714091984L202.40583754563326,270.66934371909997L205.0827541420949,268.0112676729L207.5006142937377,264.3301315128L210.1775308901994,262.5523710653L212.7716933445661,263.6694406394L215.4486099410278,258.791576356L218.03917438921653,255.6993938896L220.71609098567816,258.0875504502L223.39300758213983,254.5655150562L225.9835720303286,248.9407637296L228.65689062061216,249.47727324049998L231.24745506880092,247.9631541796L233.92437166526258,249.25381430119998L236.60128826172422,244.4613715209L239.10550056163996,244.31264827069998L241.78241715810165,238.83244183969998L244.37657961246842,231.97351275169999L247.05349620893006,229.739955821L249.64406065711879,216.1742163059L252.32097725358048,224.0558292283L254.99789385004212,222.701168006L257.5884582982308,222.43869319560002L260.2617768885145,213.5450003454L262.85234133670315,212.0331227931L265.52925793316484,212.3828441614L268.20617452962654,209.9140612401L270.62403468126934,200.6382179953L273.300951277731,196.2144825406L275.89511373209774,196.014708268L278.5720303285594,188.0345797195L281.1625947767481,183.45014505609998L283.8395113732098,178.580731018L286.51642796967144,177.6632815612L289.10699241786017,171.1318807748L291.7803110081438,172.3757334814L294.3708754563325,170.1749273161L297.0477920527942,162.2482049475L299.72470864925583,154.1218968768L302.14256880089863,144.25894577089997L304.81948539736027,145.8270181629L307.41364785172703,144.80151342629998L310.0905644481887,123.9563359359L312.6811288963774,110.93248402809999L315.3580454928391,114.6248861313L318.03496208930073,123.05150577379999L320.62552653748946,118.7629914783L323.2988451277731,104.00992729410001L325.8894095759618,113.73601687499999L328.5663261724235,109.54821653780002L331.2432427688852,95.69234155840002L333.661102920528,93.63137254909995L336.3380195169896,87.4278171919L338.9321819713564,86.72002569800003L341.609098567818,85.35146649189997L344.19966301600675,66.02074455259995L346.87657961246845,49.630832841200004L349.55349620893,75.72666780170005L352.1440606571188,52.84679946219998L354.8173792474024,62.18843825960005L357.40794369559114,47.5612820689L360.0848602920528,41.98028242609996L362.7617768885145,38.40723705239998L365.26598918843024,45.87154187190001L367.9429057848919,34.55029891999999L370.53706823925864,30.07399890979997L373.21398483572034,15.14945572580001L375.804549283909,18.824849164800014L378.4814658803707,25.497108533400024L381.15838247683234,37.228300235000006L383.7489469250211,33.61582593380001L386.4222655153047,33.1049208005L389.0128299634934,44.458303522300014L391.68974655995504,61.018562016000004L394.36666315641673,35.09640618980001L396.78452330805953,22.188199400999963L399.4614399045212,35.960327034000045L402.05560235888794,39.03895541329996L404.73251895534963,23.0287139477L407.3230834035383,23.021511021399988L410,29.127846202800015" data-legend="pandas" style="stroke: rgb(31, 119, 180); fill: none;"></path><path class="line" d="M2.676916596461668,300L5.2674810446503795,300L7.940799634934008,300L10.531364083122718,300L13.208280679584385,300L15.885197276046055,300L18.303057427688852,300L20.97997402415052,300L23.57413647851727,300L26.251053074978937,300L28.84161752316765,300L31.518534119629315,300L34.19545071609099,300L36.786015164279696,299.4445524482L39.459333754563325,299.212990897L42.04989820275203,300L44.7268147992137,299.7757696707L47.40373139567537,299.7751293007L49.82159154731817,299.6143983651L52.49850814377983,299.7988008531L55.09267059814658,300L57.76958719460825,300L60.360151642796964,300L63.03706823925863,299.8419746844L65.7139848357203,299.8355236106L68.30454928390901,299.3694233377L70.97786787419264,299.7111371088L73.56843232238135,299.4216811729L76.24534891884302,299.7486458295L78.92226551530469,299.5151808982L81.34012566694749,299.203591801L84.01704226340915,299.474999475L86.6112047177759,299.499844952L89.28812131423757,299.5950187304L91.87868576242629,299.7011207971L94.55560235888795,299.1584380611L97.23251895534962,299.5089903861L99.82308340353833,299.5058263079L102.49640199382196,300L105.08696644201068,299.8068640517L107.76388303847233,299.8275653959L110.44079963493401,299.8382021018L112.94501193484976,299.7002600245L115.62192853131144,299.2227757786L118.21609098567818,299.7018463167L120.89300758213984,299.3100857794L123.48357203032856,299.5050240064L126.16048862679024,299.7159615412L128.8374052232519,298.7851638131L131.4279696714406,298.9947256607L134.10128826172425,299.117710935L136.69185270991292,299.2579290284L139.36876930637462,297.51342115L142.04568590283628,298.0311989343L144.46354605447908,298.7277868697L147.14046265094075,298.4773684242L149.73462510530752,298.7353054539L152.41154170176915,297.3395494971L155.00210614995788,297.9008997765L157.67902274641955,298.7050215732L160.35593934288121,297.4603635309L162.94650379106992,297.880446302L165.61982238135357,297.3891673147L168.21038682954227,298.487241394L170.88730342600394,298.9397007836L173.56422002246558,298.1349944317L175.98208017410838,297.4922597634L178.65899677057007,298.0961006083L181.2531592249368,297.8412770551L183.93007582139848,297.9058623536L186.52064026958718,297.6249314341L189.19755686604887,297.0570924073L191.87447346251054,297.9475911361L194.46503791069924,297.5054966093L197.13835650098287,297.4123353373L199.7289209491716,297.6106526148L202.40583754563326,297.8833547014L205.0827541420949,296.4191717545L207.5006142937377,297.6184805907L210.1775308901994,297.1927520035L212.7716933445661,297.6718121424L215.4486099410278,297.9663375345L218.03917438921653,297.581732303L220.71609098567816,297.5052113364L223.39300758213983,297.3406963981L225.9835720303286,296.815544461L228.65689062061216,297.7984510128L231.24745506880092,298.1332073249L233.92437166526258,298.7216185421L236.60128826172422,298.075658686L239.10550056163996,297.8024722188L241.78241715810165,297.8501778722L244.37657961246842,296.8619525038L247.05349620893006,297.5395315269L249.64406065711879,297.4926346142L252.32097725358048,297.3372387166L254.99789385004212,298.3540933112L257.5884582982308,298.3313962186L260.2617768885145,297.9278428845L262.85234133670315,298.3214800816L265.52925793316484,298.687169652L268.20617452962654,297.3504135659L270.62403468126934,298.2480290327L273.300951277731,297.2331390885L275.89511373209774,298.0533174715L278.5720303285594,297.9632364174L281.1625947767481,298.7654805928L283.8395113732098,297.8389076247L286.51642796967144,298.0709876544L289.10699241786017,297.6871345377L291.7803110081438,298.2688944205L294.3708754563325,298.6816267339L297.0477920527942,298.6155598488L299.72470864925583,297.9565200196L302.14256880089863,296.964567159L304.81948539736027,297.0184113102L307.41364785172703,297.5900856123L310.0905644481887,297.709469055L312.6811288963774,298.10046032179997L315.3580454928391,298.1526191402L318.03496208930073,297.4152805818L320.62552653748946,298.1160394125L323.2988451277731,297.982257316L325.8894095759618,298.2485398153L328.5663261724235,299.0558339347L331.2432427688852,298.6241908523L333.661102920528,298.243137255L336.3380195169896,298.5480943739L338.9321819713564,298.5277190353L341.609098567818,298.4359405956L344.19966301600675,298.525903889L346.87657961246845,298.5233313645L349.55349620893,298.6676831751L352.1440606571188,298.6088938057L354.8173792474024,298.8426004725L357.40794369559114,298.9338938006L360.0848602920528,298.6249948438L362.7617768885145,299.3746786544L365.26598918843024,299.2901439718L367.9429057848919,297.577812765L370.53706823925864,297.7330749759L373.21398483572034,297.1292314543L375.804549283909,297.513870782L378.4814658803707,297.830552599L381.15838247683234,297.5436010809L383.7489469250211,297.9170138311L386.4222655153047,298.137941308L389.0128299634934,296.7075896391L391.68974655995504,297.1090955083L394.36666315641673,295.8895360235L396.78452330805953,296.6039038404L399.4614399045212,296.6492427289L402.05560235888794,297.1533772704L404.73251895534963,297.3780136855L407.3230834035383,297.5412178282L410,297.7925088138" data-legend="stata" style="stroke: rgb(255, 127, 14); fill: none;"></path><path class="line" d="M2.676916596461668,292.0834832674L5.2674810446503795,285.4439592431L7.940799634934008,291.2343613037L10.531364083122718,289.1240692714L13.208280679584385,287.9142548184L15.885197276046055,284.4961240311L18.303057427688852,288.6436577298L20.97997402415052,284.8413074373L23.57413647851727,283.5532756393L26.251053074978937,284.6477917813L28.84161752316765,287.851602654L31.518534119629315,289.5113524186L34.19545071609099,284.4084377867L36.786015164279696,280.5593356848L39.459333754563325,269.3066449802L42.04989820275203,273.0177388331L44.7268147992137,279.3708096958L47.40373139567537,275.0393523724L49.82159154731817,276.478300268L52.49850814377983,262.7781578207L55.09267059814658,259.8961562307L57.76958719460825,273.6257383891L60.360151642796964,275.0157185877L63.03706823925863,277.8764558083L65.7139848357203,272.8613957467L68.30454928390901,274.4616451746L70.97786787419264,277.4686944842L73.56843232238135,274.1202324842L76.24534891884302,277.7551559025L78.92226551530469,264.9718198898L81.34012566694749,257.1930593026L84.01704226340915,259.994959995L86.6112047177759,269.6906040873L89.28812131423757,268.41146097L91.87868576242629,271.7061021171L94.55560235888795,276.1557450629L97.23251895534962,273.7800866141L99.82308340353833,260.3672698881L102.49640199382196,260.2817056801L105.08696644201068,262.5316260116L107.76388303847233,260.5986929458L110.44079963493401,255.101083237L112.94501193484976,256.9123785117L115.62192853131144,251.7343758501L118.21609098567818,259.8237911732L120.89300758213984,260.3682608796L123.48357203032856,260.8261856443L126.16048862679024,257.6782696378L128.8374052232519,258.08815155089997L131.4279696714406,249.4011915852L134.10128826172425,242.9226843306L136.69185270991292,250.05862360679998L139.36876930637462,253.90265362600002L142.04568590283628,246.7767445219L144.46354605447908,242.6347533931L147.14046265094075,238.68479769500001L149.73462510530752,238.6924262864L152.41154170176915,243.1170344846L155.00210614995788,243.72142103419998L157.67902274641955,246.25839528630001L160.35593934288121,246.0629587975L162.94650379106992,239.8916310238L165.61982238135357,231.83456401939998L168.21038682954227,236.10107647910002L170.88730342600394,241.1003785269L173.56422002246558,234.1919463731L175.98208017410838,231.4711754551L178.65899677057007,227.2916259301L181.2531592249368,228.7053343181L183.93007582139848,236.4983554861L186.52064026958718,237.2868800082L189.19755686604887,243.4716499902L191.87447346251054,235.2887558177L194.46503791069924,228.5875889755L197.13835650098287,226.1011114923L199.7289209491716,235.48762059749998L202.40583754563326,238.7382374997L205.0827541420949,229.0399202669L207.5006142937377,226.80797015169998L210.1775308901994,219.2783783641L212.7716933445661,224.523398288L215.4486099410278,234.655213936L218.03917438921653,242.1159327825L220.71609098567816,243.5623364528L223.39300758213983,246.9836707443L225.9835720303286,242.94966941040002L228.65689062061216,236.7760290831L231.24745506880092,249.0715623305L233.92437166526258,248.3089236584L236.60128826172422,242.75084590839998L239.10550056163996,238.21950305910002L241.78241715810165,242.8249686485L244.37657961246842,239.7920378694L247.05349620893006,246.08840189839998L249.64406065711879,249.1118797833L252.32097725358048,248.1871033596L254.99789385004212,250.3288874259L257.5884582982308,248.6760492066L260.2617768885145,255.3335021758L262.85234133670315,254.5556273935L265.52925793316484,254.9642111032L268.20617452962654,251.27064949430002L270.62403468126934,246.23951945940001L273.300951277731,246.52617789229998L275.89511373209774,246.35808143629998L278.5720303285594,254.7951638181L281.1625947767481,259.0925160067L283.8395113732098,259.2235991288L286.51642796967144,264.0332536838L289.10699241786017,258.9021598606L291.7803110081438,255.3494147073L294.3708754563325,265.37535474649997L297.0477920527942,263.8786978712L299.72470864925583,264.7334906594L302.14256880089863,267.1356021249L304.81948539736027,262.4816756529L307.41364785172703,268.2493779409L310.0905644481887,270.0922102315L312.6811288963774,270.8104069448L315.3580454928391,274.2640735385L318.03496208930073,269.9613689233L320.62552653748946,267.4702805218L323.2988451277731,266.4382133562L325.8894095759618,268.0168140178L328.5663261724235,272.4843032392L331.2432427688852,275.0978544257L333.661102920528,271.6392156863L336.3380195169896,267.8600890943L338.9321819713564,269.4167090506L341.609098567818,273.1875530664L344.19966301600675,274.3373267938L346.87657961246845,276.5948021265L349.55349620893,277.720701983L352.1440606571188,271.2504719825L354.8173792474024,272.6989876159L357.40794369559114,277.9925220266L360.0848602920528,277.518665695L362.7617768885145,277.0020705085L365.26598918843024,280.5757577714L367.9429057848919,276.2735750383L370.53706823925864,280.0294700254L373.21398483572034,282.4824531597L375.804549283909,281.2024376194L378.4814658803707,284.4070968049L381.15838247683234,282.8681921534L383.7489469250211,278.8130549671L386.4222655153047,273.3725607032L389.0128299634934,277.0164430572L391.68974655995504,277.655717366L394.36666315641673,277.5505428975L396.78452330805953,279.0666859669L399.4614399045212,276.8493133994L402.05560235888794,279.3929267614L404.73251895534963,282.6053590843L407.3230834035383,282.8549783694L410,285.8460859234" data-legend="matlab" style="stroke: rgb(44, 160, 44); fill: none;"></path></g></g><g transform="translate(20, 150)"><text transform="rotate(-90)" x="-50" y="0" dy="1em" class="axis-label y-axis-label" style="text-anchor: middle; font-weight: bold;">% of Stack Overflow questions that month</text></g><g class="legend" transform="translate(530, 30)" style="font-size: 12px;"><text class="legend-title" style="font-weight: bold;">Tag</text><g class="legend-items" transform="translate(0,20)"><text y="0em" x="1em">pandas</text><text y="1em" x="1em">matlab</text><text y="2em" x="1em">stata</text><circle cy="-0.25em" cx="0" r="0.4em" style="fill: rgb(31, 119, 180);"></circle><circle cy="0.75em" cx="0" r="0.4em" style="fill: rgb(44, 160, 44);"></circle><circle cy="1.75em" cx="0" r="0.4em" style="fill: rgb(255, 127, 14);"></circle></g><rect class="legend-box"></rect></g></svg>
        